Coordinates
version=1
nRows=19
nColumns=63
inDegrees=yes

Units are S.I. units (second, meters, Newtons, ...)
If the header above contains a line with 'inDegrees', this indicates whether rotational values are in degrees (yes) or radians (no).

endheader
time	pelvis_tilt	pelvis_list	pelvis_rotation	pelvis_tx	pelvis_ty	pelvis_tz	hip_flexion_r	hip_adduction_r	hip_rotation_r	knee_angle_r	knee_angle_r_beta	ankle_angle_r	subtalar_angle_r	mtp_angle_r	hip_flexion_l	hip_adduction_l	hip_rotation_l	knee_angle_l	knee_angle_l_beta	ankle_angle_l	subtalar_angle_l	mtp_angle_l	L5_S1_Flex_Ext	L5_S1_Lat_Bending	L5_S1_axial_rotation	L4_L5_Flex_Ext	L4_L5_Lat_Bending	L4_L5_axial_rotation	L3_L4_Flex_Ext	L3_L4_Lat_Bending	L3_L4_axial_rotation	L2_L3_Flex_Ext	L2_L3_Lat_Bending	L2_L3_axial_rotation	L1_L2_Flex_Ext	L1_L2_Lat_Bending	L1_L2_axial_rotation	L1_T12_Flex_Ext	L1_T12_Lat_Bending	L1_T12_axial_rotation	Abs_r3	Abs_r2	Abs_r1	Abs_t1	Abs_t2	neck_flexion	neck_bending	neck_rotation	arm_flex_r	arm_add_r	arm_rot_r	elbow_flex_r	pro_sup_r	wrist_flex_r	wrist_dev_r	arm_flex_l	arm_add_l	arm_rot_l	elbow_flex_l	pro_sup_l	wrist_flex_l	wrist_dev_l
0.000000	1.549460	-3.261330	103.048927	0.229590	0.884904	0.690986	3.449785	1.594613	-7.778246	8.916785	0.155627	33.709828	-11.601710	0.000000	1.806003	-2.039403	17.581825	0.771965	0.013473	35.449265	-1.864890	0.000000	0.190761	0.264775	-2.398045	0.354262	0.352151	-2.547923	0.313401	0.643773	-2.547923	0.218021	0.643773	-2.098290	0.177141	0.539929	-1.948412	0.109001	0.410136	-1.798534	1.362586	2.995186	-13.337208	0.000000	0.000000	22.948245	9.635239	19.878964	17.660563	-12.386794	32.115813	80.317374	89.559096	-4.469476	-12.575301	12.202426	-12.652967	19.369995	87.560775	73.791678	3.695221	7.206174
0.016949	1.522641	-2.975568	102.227219	0.230451	0.885161	0.689415	3.237286	1.592339	-7.922200	9.050505	0.157961	34.728186	-9.625917	0.000000	1.251761	-2.100763	17.546627	0.762268	0.013304	34.848413	-3.848198	0.000000	0.188660	0.262293	-2.203248	0.350360	0.348850	-2.340951	0.309949	0.637740	-2.340951	0.215619	0.637740	-1.927842	0.175190	0.534868	-1.790139	0.107800	0.406292	-1.652436	1.347579	2.967113	-12.253806	0.000000	0.000000	23.169216	9.693745	19.205536	16.741532	-11.595079	30.088165	80.669856	89.523872	-2.969881	-9.962617	12.173862	-12.457010	19.468684	87.284022	72.756192	3.535009	7.738749
0.033898	1.503199	-2.741563	101.559365	0.231144	0.885417	0.688015	3.042364	1.601991	-7.944265	9.146561	0.159638	35.469940	-8.157546	0.000000	0.787045	-2.154264	17.639218	0.743471	0.012976	34.278351	-5.660681	0.000000	0.187566	0.260383	-2.042830	0.348328	0.346309	-2.170507	0.308152	0.633094	-2.170507	0.214369	0.633094	-1.787477	0.174173	0.530972	-1.659800	0.107175	0.403333	-1.532123	1.339763	2.945500	-11.361610	0.000000	0.000000	23.340725	9.768814	18.663947	15.974917	-10.922126	28.283339	80.986685	89.475038	-1.145523	-7.458284	12.117321	-12.335481	19.607445	87.133651	72.006165	3.347725	8.188508
0.050847	1.490113	-2.553878	101.034310	0.231683	0.885673	0.686767	2.862434	1.622384	-7.862127	9.208007	0.160710	35.962960	-7.145936	0.000000	0.403763	-2.200553	17.839620	0.718302	0.012537	33.741394	-7.302928	0.000000	0.187320	0.258926	-1.913856	0.347872	0.344371	-2.033472	0.307748	0.629551	-2.033472	0.214088	0.629551	-1.674624	0.173945	0.528001	-1.555008	0.107035	0.401076	-1.435392	1.338007	2.929017	-10.644292	0.000000	0.000000	23.467127	9.857055	18.240700	15.348448	-10.361999	26.694115	81.269011	89.413958	0.936800	-5.079267	12.034421	-12.278948	19.777810	87.094352	71.510454	3.147318	8.563914
0.067797	1.482362	-2.407074	100.640999	0.232085	0.885927	0.685654	2.694912	1.652330	-7.693474	9.237893	0.161232	36.235119	-6.540422	0.000000	0.093826	-2.240274	18.127857	0.689490	0.012034	33.239858	-8.775528	0.000000	0.187765	0.257804	-1.813389	0.348698	0.342880	-1.926726	0.308479	0.626825	-1.926726	0.214596	0.626825	-1.586716	0.174358	0.525714	-1.473379	0.107289	0.399339	-1.360042	1.341184	2.916332	-10.085527	0.000000	0.000000	23.552775	9.955078	17.922297	14.849860	-9.908766	25.313269	81.517985	89.341995	3.210288	-2.842531	11.926785	-12.277979	19.971311	87.150811	71.237918	2.947738	8.873430
0.084746	1.478927	-2.295714	100.368375	0.232365	0.886179	0.684660	2.537217	1.690642	-7.455991	9.239272	0.161256	36.314289	-6.290342	0.000000	-0.150856	-2.274073	18.483951	0.659761	0.011515	32.776059	-10.079069	0.000000	0.188742	0.256901	-1.738495	0.350512	0.341678	-1.847151	0.310084	0.624629	-1.847151	0.215713	0.624629	-1.521183	0.175266	0.523872	-1.412527	0.107847	0.397939	-1.303871	1.348164	2.906113	-9.668988	0.000000	0.000000	23.602022	10.059492	17.695240	14.466882	-9.556491	24.133580	81.734757	89.260511	5.608142	-0.765039	11.796032	-12.323143	20.179482	87.287715	71.157415	2.762936	9.125519
0.101695	1.478787	-2.214360	100.205383	0.232538	0.886429	0.683766	2.386764	1.736134	-7.167368	9.215196	0.160836	36.228340	-6.345032	0.000000	-0.338374	-2.302595	18.887926	0.631844	0.011028	32.352311	-11.214140	0.000000	0.190093	0.256098	-1.686238	0.353022	0.340610	-1.791628	0.312304	0.622676	-1.791628	0.217257	0.622676	-1.475458	0.176520	0.522235	-1.370068	0.108619	0.396696	-1.264678	1.357816	2.897030	-9.378348	0.000000	0.000000	23.619222	10.166906	17.546032	14.187248	-9.299239	23.147825	81.920479	89.170871	8.063562	1.136243	11.643782	-12.405007	20.393854	87.489754	71.237803	2.606861	9.328645
0.118644	1.480922	-2.157575	100.140967	0.232620	0.886675	0.682957	2.240970	1.787618	-6.845289	9.168716	0.160024	36.005144	-6.653829	0.000000	-0.476817	-2.326485	19.319804	0.608466	0.010620	31.970931	-12.181330	0.000000	0.191661	0.255278	-1.653681	0.355933	0.339519	-1.757037	0.314879	0.620682	-1.757037	0.219049	0.620682	-1.446971	0.177976	0.520562	-1.343616	0.109515	0.395425	-1.240261	1.369013	2.887751	-9.197280	0.000000	0.000000	23.608728	10.273930	17.461174	13.998688	-9.131077	22.348783	82.076300	89.074437	10.509748	2.844351	11.471657	-12.514140	20.605961	87.741614	71.447940	2.493464	9.491269
0.135593	1.484311	-2.119919	100.164073	0.232628	0.886918	0.682214	2.097253	1.843907	-6.507443	9.102884	0.158875	35.672574	-7.166070	0.000000	-0.574275	-2.346388	19.759608	0.592356	0.010339	31.634235	-12.981229	0.000000	0.193286	0.254322	-1.637891	0.358952	0.338249	-1.740259	0.317550	0.618359	-1.740259	0.220907	0.618359	-1.433155	0.179486	0.518614	-1.330786	0.110444	0.393945	-1.228418	1.380624	2.876945	-9.109459	0.000000	0.000000	23.574892	10.377173	17.427168	13.888936	-9.046069	21.729230	82.203371	88.972573	12.879902	4.342321	11.281276	-12.641109	20.807335	88.027983	71.756683	2.436694	9.621857
0.152542	1.487933	-2.095956	100.263643	0.232575	0.887157	0.681520	1.953029	1.903814	-6.171516	9.020753	0.157442	35.258500	-7.831092	0.000000	-0.638839	-2.362950	20.187362	0.586241	0.010232	31.344536	-13.614424	0.000000	0.194812	0.253114	-1.635931	0.361785	0.336642	-1.738177	0.320056	0.615422	-1.738177	0.222650	0.615422	-1.431439	0.180902	0.516151	-1.329194	0.111315	0.392074	-1.226948	1.391521	2.863281	-9.098557	0.000000	0.000000	23.522070	10.473244	17.430517	13.845723	-9.038282	21.281946	82.302844	88.866641	15.107224	5.613187	11.074260	-12.776483	20.989510	88.333549	72.132893	2.450501	9.728869
0.169492	1.490770	-2.080248	100.428623	0.232479	0.887391	0.680859	1.805714	1.966153	-5.855196	8.925373	0.155777	34.790795	-8.598231	0.000000	-0.678599	-2.376815	20.583088	0.592849	0.010347	31.104152	-14.081505	0.000000	0.196079	0.251536	-1.644865	0.364139	0.334543	-1.747669	0.322138	0.611585	-1.747669	0.224099	0.611585	-1.439257	0.182079	0.512933	-1.336453	0.112040	0.389630	-1.233649	1.400574	2.845427	-9.148247	0.000000	0.000000	23.454614	10.558752	17.457722	13.856781	-9.101780	20.999708	82.375867	88.758005	17.124914	6.639985	10.852230	-12.910829	21.144016	88.643000	72.545426	2.548835	9.820771
0.186441	1.475269	-2.087181	100.664412	0.232363	0.887613	0.680218	1.676661	2.001107	-5.683815	8.835288	0.154205	34.337545	-9.305701	0.000000	-0.665899	-2.363091	20.910806	0.627574	0.010953	30.998378	-14.307609	0.000000	0.198377	0.246584	-1.650257	0.368406	0.327957	-1.753398	0.325914	0.599545	-1.753398	0.226725	0.599545	-1.443975	0.184213	0.502834	-1.340834	0.113353	0.381959	-1.237693	1.416989	2.789409	-9.178234	0.000000	0.000000	23.515963	10.656142	17.478526	13.782537	-9.221662	20.684366	82.518903	88.662400	18.940754	7.551929	10.641853	-12.997223	21.257060	88.886459	72.815991	3.136423	10.103110
0.203390	1.465151	-2.064923	100.926815	0.232270	0.887820	0.679615	1.513021	2.058481	-5.517886	8.726463	0.152306	33.890716	-10.027543	0.000000	-0.676538	-2.366660	21.079820	0.692323	0.012083	30.929419	-14.331946	0.000000	0.197994	0.242719	-1.664431	0.367694	0.322816	-1.768458	0.325284	0.590147	-1.768458	0.226287	0.590147	-1.456377	0.183857	0.494952	-1.352350	0.113134	0.375972	-1.248323	1.414251	2.745685	-9.257066	0.000000	0.000000	23.461670	10.721171	17.525182	13.787616	-9.429051	20.659256	82.583052	88.611934	20.113572	7.962278	10.412270	-13.049833	21.269991	89.078942	72.987581	3.849497	10.357632
0.220339	1.453861	-2.011587	101.203737	0.232211	0.888022	0.678997	1.317052	2.128268	-5.372431	8.609681	0.150267	33.482069	-10.724180	0.000000	-0.718035	-2.379433	21.092194	0.785229	0.013705	30.887725	-14.176981	0.000000	0.195452	0.238752	-1.682350	0.362973	0.317540	-1.787497	0.321108	0.580501	-1.787497	0.223382	0.580501	-1.472057	0.181496	0.486862	-1.366910	0.111681	0.369826	-1.261763	1.396092	2.700805	-9.356728	0.000000	0.000000	23.305605	10.766751	17.575852	13.835925	-9.699366	20.900009	82.565571	88.618851	20.474656	7.789521	10.156145	-13.074565	21.207314	89.224298	73.002017	4.610256	10.608375
0.237288	1.450699	-1.942466	101.503754	0.232164	0.888210	0.678344	1.116468	2.196518	-5.483398	8.505743	0.148453	33.193962	-11.104953	0.000000	-0.766244	-2.407122	20.765837	0.911325	0.015906	30.937044	-13.575186	0.000000	0.192455	0.235312	-1.702434	0.357408	0.312965	-1.808836	0.316184	0.572137	-1.808836	0.219957	0.572137	-1.489630	0.178714	0.479848	-1.383228	0.109969	0.364498	-1.276826	1.374686	2.661893	-9.468428	0.000000	0.000000	23.123517	10.776425	17.577660	13.879844	-9.994278	21.289817	82.492299	88.604076	20.214402	7.117193	9.852683	-13.069244	21.100904	89.349419	73.032459	5.211586	10.765503
0.254237	1.436126	-1.849274	101.777440	0.232180	0.888405	0.677567	0.891521	2.256476	-5.641619	8.397951	0.146572	32.998827	-11.357573	0.000000	-0.858618	-2.429424	20.676816	1.035024	0.018065	30.902382	-13.352585	0.000000	0.188084	0.229757	-1.705460	0.349292	0.305577	-1.812051	0.309004	0.558631	-1.812051	0.214962	0.558631	-1.492278	0.174655	0.468520	-1.385686	0.107471	0.355893	-1.279095	1.343469	2.599056	-9.485257	0.000000	0.000000	22.950409	10.729820	17.412425	13.903086	-10.336501	21.768540	82.421603	88.867364	19.359596	6.019414	9.561896	-13.049203	21.032445	89.419508	72.805577	5.797834	10.970097
0.271186	1.415256	-1.744179	102.037863	0.232233	0.888612	0.676619	0.649801	2.314018	-5.825332	8.273544	0.144401	32.883162	-11.539683	0.000000	-0.972907	-2.450778	20.532044	1.162219	0.020285	30.905024	-13.067385	0.000000	0.183898	0.222652	-1.697709	0.341516	0.296127	-1.803816	0.302126	0.541355	-1.803816	0.210177	0.541355	-1.485496	0.170767	0.454031	-1.379389	0.105079	0.344887	-1.273282	1.313563	2.518680	-9.442150	0.000000	0.000000	22.840719	10.611564	17.079398	13.915376	-10.687363	22.325881	82.334187	89.167848	18.170428	4.620727	9.252436	-13.008001	20.980006	89.450755	72.719437	6.192714	11.019951
0.288136	1.391157	-1.631599	102.279056	0.232313	0.888842	0.675470	0.397658	2.368498	-6.027667	8.137182	0.142021	32.850695	-11.649205	0.000000	-1.102961	-2.474230	20.337572	1.290324	0.022520	30.959088	-12.703142	0.000000	0.180386	0.214797	-1.679956	0.334995	0.285680	-1.784953	0.296356	0.522258	-1.784953	0.206163	0.522258	-1.469962	0.167507	0.438015	-1.364964	0.103073	0.332721	-1.259967	1.288480	2.429829	-9.343412	0.000000	0.000000	22.812346	10.427119	16.595063	13.944154	-11.047064	23.005116	82.219006	89.229336	16.871269	3.138262	8.945541	-12.941815	20.919566	89.433701	72.914571	6.477862	10.902708
0.305085	1.359679	-1.511467	102.513216	0.232393	0.889104	0.674111	0.136582	2.412658	-6.266708	7.999044	0.139610	32.903661	-11.679802	0.000000	-1.247941	-2.494500	20.106434	1.415738	0.024709	31.078647	-12.250359	0.000000	0.177170	0.205874	-1.655520	0.329023	0.273813	-1.758990	0.291073	0.500563	-1.758990	0.202488	0.500563	-1.448580	0.164520	0.419819	-1.345110	0.101235	0.318899	-1.241640	1.265508	2.328890	-9.207504	0.000000	0.000000	22.872762	10.170738	15.965577	14.015295	-11.424998	23.852363	82.067424	88.756592	15.642809	1.847640	8.670492	-12.840184	20.825587	89.352329	73.451304	6.731404	10.620946
